<?xml version="1.0" encoding="utf-8" standalone="no"?>
<!DOCTYPE svg PUBLIC "-//W3C//DTD SVG 1.1//EN"
  "http://www.w3.org/Graphics/SVG/1.1/DTD/svg11.dtd">
<svg xmlns:xlink="http://www.w3.org/1999/xlink" width="720pt" height="432pt" viewBox="0 0 720 432" xmlns="http://www.w3.org/2000/svg" version="1.1">
 <metadata>
  <rdf:RDF xmlns:dc="http://purl.org/dc/elements/1.1/" xmlns:cc="http://creativecommons.org/ns#" xmlns:rdf="http://www.w3.org/1999/02/22-rdf-syntax-ns#">
   <cc:Work>
    <dc:type rdf:resource="http://purl.org/dc/dcmitype/StillImage"/>
    <dc:date>2022-06-10T12:19:54.663948</dc:date>
    <dc:format>image/svg+xml</dc:format>
    <dc:creator>
     <cc:Agent>
      <dc:title>Matplotlib v3.5.1, https://matplotlib.org/</dc:title>
     </cc:Agent>
    </dc:creator>
   </cc:Work>
  </rdf:RDF>
 </metadata>
 <defs>
  <style type="text/css">*{stroke-linejoin: round; stroke-linecap: butt}</style>
 </defs>
 <g id="figure_1">
  <g id="patch_1">
   <path d="M 0 432 
L 720 432 
L 720 0 
L 0 0 
z
" style="fill: #ffffff"/>
  </g>
  <g id="axes_1">
   <g id="patch_2">
    <path d="M 75.35 193.12 
L 709.2 193.12 
L 709.2 38.16 
L 75.35 38.16 
z
" style="fill: #ffffff"/>
   </g>
   <g id="PathCollection_1">
    <defs>
     <path id="mde51c47e1f" d="M 0 3 
C 0.795609 3 1.55874 2.683901 2.12132 2.12132 
C 2.683901 1.55874 3 0.795609 3 0 
C 3 -0.795609 2.683901 -1.55874 2.12132 -2.12132 
C 1.55874 -2.683901 0.795609 -3 0 -3 
C -0.795609 -3 -1.55874 -2.683901 -2.12132 -2.12132 
C -2.683901 -1.55874 -3 -0.795609 -3 0 
C -3 0.795609 -2.683901 1.55874 -2.12132 2.12132 
C -1.55874 2.683901 -0.795609 3 0 3 
z
" style="stroke: #1f77b4"/>
    </defs>
    <g clip-path="url(#pf8b685444c)">
     <use xlink:href="#mde51c47e1f" x="104.161364" y="115.681949" style="fill: #1f77b4; stroke: #1f77b4"/>
     <use xlink:href="#mde51c47e1f" x="115.242657" y="107.044664" style="fill: #1f77b4; stroke: #1f77b4"/>
     <use xlink:href="#mde51c47e1f" x="126.323951" y="98.545059" style="fill: #1f77b4; stroke: #1f77b4"/>
     <use xlink:href="#mde51c47e1f" x="137.405245" y="90.308982" style="fill: #1f77b4; stroke: #1f77b4"/>
     <use xlink:href="#mde51c47e1f" x="148.486538" y="82.451526" style="fill: #1f77b4; stroke: #1f77b4"/>
     <use xlink:href="#mde51c47e1f" x="159.567832" y="75.088859" style="fill: #1f77b4; stroke: #1f77b4"/>
     <use xlink:href="#mde51c47e1f" x="170.649126" y="68.329619" style="fill: #1f77b4; stroke: #1f77b4"/>
     <use xlink:href="#mde51c47e1f" x="181.73042" y="62.289973" style="fill: #1f77b4; stroke: #1f77b4"/>
     <use xlink:href="#mde51c47e1f" x="192.811713" y="57.059198" style="fill: #1f77b4; stroke: #1f77b4"/>
     <use xlink:href="#mde51c47e1f" x="203.893007" y="52.709362" style="fill: #1f77b4; stroke: #1f77b4"/>
     <use xlink:href="#mde51c47e1f" x="214.974301" y="49.3007" style="fill: #1f77b4; stroke: #1f77b4"/>
     <use xlink:href="#mde51c47e1f" x="226.055594" y="46.893447" style="fill: #1f77b4; stroke: #1f77b4"/>
     <use xlink:href="#mde51c47e1f" x="237.136888" y="45.518795" style="fill: #1f77b4; stroke: #1f77b4"/>
     <use xlink:href="#mde51c47e1f" x="248.218182" y="45.203636" style="fill: #1f77b4; stroke: #1f77b4"/>
     <use xlink:href="#mde51c47e1f" x="259.299476" y="45.945819" style="fill: #1f77b4; stroke: #1f77b4"/>
     <use xlink:href="#mde51c47e1f" x="270.380769" y="47.733511" style="fill: #1f77b4; stroke: #1f77b4"/>
     <use xlink:href="#mde51c47e1f" x="281.462063" y="50.553805" style="fill: #1f77b4; stroke: #1f77b4"/>
     <use xlink:href="#mde51c47e1f" x="292.543357" y="54.345391" style="fill: #1f77b4; stroke: #1f77b4"/>
     <use xlink:href="#mde51c47e1f" x="303.62465" y="59.057713" style="fill: #1f77b4; stroke: #1f77b4"/>
     <use xlink:href="#mde51c47e1f" x="314.705944" y="64.619781" style="fill: #1f77b4; stroke: #1f77b4"/>
     <use xlink:href="#mde51c47e1f" x="325.787238" y="70.944468" style="fill: #1f77b4; stroke: #1f77b4"/>
     <use xlink:href="#mde51c47e1f" x="336.868531" y="77.9468" style="fill: #1f77b4; stroke: #1f77b4"/>
     <use xlink:href="#mde51c47e1f" x="347.949825" y="85.523517" style="fill: #1f77b4; stroke: #1f77b4"/>
     <use xlink:href="#mde51c47e1f" x="359.031119" y="93.559527" style="fill: #1f77b4; stroke: #1f77b4"/>
     <use xlink:href="#mde51c47e1f" x="370.112413" y="101.910696" style="fill: #1f77b4; stroke: #1f77b4"/>
     <use xlink:href="#mde51c47e1f" x="381.193706" y="110.473763" style="fill: #1f77b4; stroke: #1f77b4"/>
     <use xlink:href="#mde51c47e1f" x="392.275" y="119.132561" style="fill: #1f77b4; stroke: #1f77b4"/>
     <use xlink:href="#mde51c47e1f" x="403.356294" y="127.717141" style="fill: #1f77b4; stroke: #1f77b4"/>
     <use xlink:href="#mde51c47e1f" x="414.437587" y="136.142528" style="fill: #1f77b4; stroke: #1f77b4"/>
     <use xlink:href="#mde51c47e1f" x="425.518881" y="144.245227" style="fill: #1f77b4; stroke: #1f77b4"/>
     <use xlink:href="#mde51c47e1f" x="436.600175" y="151.915523" style="fill: #1f77b4; stroke: #1f77b4"/>
     <use xlink:href="#mde51c47e1f" x="447.681469" y="159.03725" style="fill: #1f77b4; stroke: #1f77b4"/>
     <use xlink:href="#mde51c47e1f" x="458.762762" y="165.52113" style="fill: #1f77b4; stroke: #1f77b4"/>
     <use xlink:href="#mde51c47e1f" x="469.844056" y="171.24992" style="fill: #1f77b4; stroke: #1f77b4"/>
     <use xlink:href="#mde51c47e1f" x="480.92535" y="176.139721" style="fill: #1f77b4; stroke: #1f77b4"/>
     <use xlink:href="#mde51c47e1f" x="492.006643" y="180.113087" style="fill: #1f77b4; stroke: #1f77b4"/>
     <use xlink:href="#mde51c47e1f" x="503.087937" y="183.125919" style="fill: #1f77b4; stroke: #1f77b4"/>
     <use xlink:href="#mde51c47e1f" x="514.169231" y="185.126585" style="fill: #1f77b4; stroke: #1f77b4"/>
     <use xlink:href="#mde51c47e1f" x="525.250524" y="186.076364" style="fill: #1f77b4; stroke: #1f77b4"/>
     <use xlink:href="#mde51c47e1f" x="536.331818" y="185.970952" style="fill: #1f77b4; stroke: #1f77b4"/>
     <use xlink:href="#mde51c47e1f" x="547.413112" y="184.804972" style="fill: #1f77b4; stroke: #1f77b4"/>
     <use xlink:href="#mde51c47e1f" x="558.494406" y="182.599937" style="fill: #1f77b4; stroke: #1f77b4"/>
     <use xlink:href="#mde51c47e1f" x="569.575699" y="179.38919" style="fill: #1f77b4; stroke: #1f77b4"/>
     <use xlink:href="#mde51c47e1f" x="580.656993" y="175.217908" style="fill: #1f77b4; stroke: #1f77b4"/>
     <use xlink:href="#mde51c47e1f" x="591.738287" y="170.146327" style="fill: #1f77b4; stroke: #1f77b4"/>
     <use xlink:href="#mde51c47e1f" x="602.81958" y="164.278781" style="fill: #1f77b4; stroke: #1f77b4"/>
     <use xlink:href="#mde51c47e1f" x="613.900874" y="157.659372" style="fill: #1f77b4; stroke: #1f77b4"/>
     <use xlink:href="#mde51c47e1f" x="624.982168" y="150.415023" style="fill: #1f77b4; stroke: #1f77b4"/>
     <use xlink:href="#mde51c47e1f" x="636.063462" y="142.652223" style="fill: #1f77b4; stroke: #1f77b4"/>
     <use xlink:href="#mde51c47e1f" x="647.144755" y="134.468852" style="fill: #1f77b4; stroke: #1f77b4"/>
     <use xlink:href="#mde51c47e1f" x="658.226049" y="126.009045" style="fill: #1f77b4; stroke: #1f77b4"/>
     <use xlink:href="#mde51c47e1f" x="669.307343" y="117.397575" style="fill: #1f77b4; stroke: #1f77b4"/>
     <use xlink:href="#mde51c47e1f" x="680.388636" y="108.76244" style="fill: #1f77b4; stroke: #1f77b4"/>
    </g>
   </g>
   <g id="matplotlib.axis_1">
    <g id="xtick_1">
     <g id="line2d_1">
      <path d="M 166.124582 193.12 
L 166.124582 38.16 
" clip-path="url(#pf8b685444c)" style="fill: none; stroke: #b0b0b0; stroke-width: 0.8; stroke-linecap: square"/>
     </g>
     <g id="line2d_2">
      <defs>
       <path id="mff257d9225" d="M 0 0 
L 0 3.5 
" style="stroke: #000000; stroke-width: 0.8"/>
      </defs>
      <g>
       <use xlink:href="#mff257d9225" x="166.124582" y="193.12" style="stroke: #000000; stroke-width: 0.8"/>
      </g>
     </g>
     <g id="text_1">
      <!-- 350000 -->
      <g transform="translate(147.037082 207.718437)scale(0.1 -0.1)">
       <defs>
        <path id="DejaVuSans-33" d="M 2597 2516 
Q 3050 2419 3304 2112 
Q 3559 1806 3559 1356 
Q 3559 666 3084 287 
Q 2609 -91 1734 -91 
Q 1441 -91 1130 -33 
Q 819 25 488 141 
L 488 750 
Q 750 597 1062 519 
Q 1375 441 1716 441 
Q 2309 441 2620 675 
Q 2931 909 2931 1356 
Q 2931 1769 2642 2001 
Q 2353 2234 1838 2234 
L 1294 2234 
L 1294 2753 
L 1863 2753 
Q 2328 2753 2575 2939 
Q 2822 3125 2822 3475 
Q 2822 3834 2567 4026 
Q 2313 4219 1838 4219 
Q 1578 4219 1281 4162 
Q 984 4106 628 3988 
L 628 4550 
Q 988 4650 1302 4700 
Q 1616 4750 1894 4750 
Q 2613 4750 3031 4423 
Q 3450 4097 3450 3541 
Q 3450 3153 3228 2886 
Q 3006 2619 2597 2516 
z
" transform="scale(0.015625)"/>
        <path id="DejaVuSans-35" d="M 691 4666 
L 3169 4666 
L 3169 4134 
L 1269 4134 
L 1269 2991 
Q 1406 3038 1543 3061 
Q 1681 3084 1819 3084 
Q 2600 3084 3056 2656 
Q 3513 2228 3513 1497 
Q 3513 744 3044 326 
Q 2575 -91 1722 -91 
Q 1428 -91 1123 -41 
Q 819 9 494 109 
L 494 744 
Q 775 591 1075 516 
Q 1375 441 1709 441 
Q 2250 441 2565 725 
Q 2881 1009 2881 1497 
Q 2881 1984 2565 2268 
Q 2250 2553 1709 2553 
Q 1456 2553 1204 2497 
Q 953 2441 691 2322 
L 691 4666 
z
" transform="scale(0.015625)"/>
        <path id="DejaVuSans-30" d="M 2034 4250 
Q 1547 4250 1301 3770 
Q 1056 3291 1056 2328 
Q 1056 1369 1301 889 
Q 1547 409 2034 409 
Q 2525 409 2770 889 
Q 3016 1369 3016 2328 
Q 3016 3291 2770 3770 
Q 2525 4250 2034 4250 
z
M 2034 4750 
Q 2819 4750 3233 4129 
Q 3647 3509 3647 2328 
Q 3647 1150 3233 529 
Q 2819 -91 2034 -91 
Q 1250 -91 836 529 
Q 422 1150 422 2328 
Q 422 3509 836 4129 
Q 1250 4750 2034 4750 
z
" transform="scale(0.015625)"/>
       </defs>
       <use xlink:href="#DejaVuSans-33"/>
       <use xlink:href="#DejaVuSans-35" x="63.623047"/>
       <use xlink:href="#DejaVuSans-30" x="127.246094"/>
       <use xlink:href="#DejaVuSans-30" x="190.869141"/>
       <use xlink:href="#DejaVuSans-30" x="254.492188"/>
       <use xlink:href="#DejaVuSans-30" x="318.115234"/>
      </g>
     </g>
    </g>
    <g id="xtick_2">
     <g id="line2d_3">
      <path d="M 261.983524 193.12 
L 261.983524 38.16 
" clip-path="url(#pf8b685444c)" style="fill: none; stroke: #b0b0b0; stroke-width: 0.8; stroke-linecap: square"/>
     </g>
     <g id="line2d_4">
      <g>
       <use xlink:href="#mff257d9225" x="261.983524" y="193.12" style="stroke: #000000; stroke-width: 0.8"/>
      </g>
     </g>
     <g id="text_2">
      <!-- 400000 -->
      <g transform="translate(242.896024 207.718437)scale(0.1 -0.1)">
       <defs>
        <path id="DejaVuSans-34" d="M 2419 4116 
L 825 1625 
L 2419 1625 
L 2419 4116 
z
M 2253 4666 
L 3047 4666 
L 3047 1625 
L 3713 1625 
L 3713 1100 
L 3047 1100 
L 3047 0 
L 2419 0 
L 2419 1100 
L 313 1100 
L 313 1709 
L 2253 4666 
z
" transform="scale(0.015625)"/>
       </defs>
       <use xlink:href="#DejaVuSans-34"/>
       <use xlink:href="#DejaVuSans-30" x="63.623047"/>
       <use xlink:href="#DejaVuSans-30" x="127.246094"/>
       <use xlink:href="#DejaVuSans-30" x="190.869141"/>
       <use xlink:href="#DejaVuSans-30" x="254.492188"/>
       <use xlink:href="#DejaVuSans-30" x="318.115234"/>
      </g>
     </g>
    </g>
    <g id="xtick_3">
     <g id="line2d_5">
      <path d="M 357.842466 193.12 
L 357.842466 38.16 
" clip-path="url(#pf8b685444c)" style="fill: none; stroke: #b0b0b0; stroke-width: 0.8; stroke-linecap: square"/>
     </g>
     <g id="line2d_6">
      <g>
       <use xlink:href="#mff257d9225" x="357.842466" y="193.12" style="stroke: #000000; stroke-width: 0.8"/>
      </g>
     </g>
     <g id="text_3">
      <!-- 450000 -->
      <g transform="translate(338.754966 207.718437)scale(0.1 -0.1)">
       <use xlink:href="#DejaVuSans-34"/>
       <use xlink:href="#DejaVuSans-35" x="63.623047"/>
       <use xlink:href="#DejaVuSans-30" x="127.246094"/>
       <use xlink:href="#DejaVuSans-30" x="190.869141"/>
       <use xlink:href="#DejaVuSans-30" x="254.492188"/>
       <use xlink:href="#DejaVuSans-30" x="318.115234"/>
      </g>
     </g>
    </g>
    <g id="xtick_4">
     <g id="line2d_7">
      <path d="M 453.701408 193.12 
L 453.701408 38.16 
" clip-path="url(#pf8b685444c)" style="fill: none; stroke: #b0b0b0; stroke-width: 0.8; stroke-linecap: square"/>
     </g>
     <g id="line2d_8">
      <g>
       <use xlink:href="#mff257d9225" x="453.701408" y="193.12" style="stroke: #000000; stroke-width: 0.8"/>
      </g>
     </g>
     <g id="text_4">
      <!-- 500000 -->
      <g transform="translate(434.613908 207.718437)scale(0.1 -0.1)">
       <use xlink:href="#DejaVuSans-35"/>
       <use xlink:href="#DejaVuSans-30" x="63.623047"/>
       <use xlink:href="#DejaVuSans-30" x="127.246094"/>
       <use xlink:href="#DejaVuSans-30" x="190.869141"/>
       <use xlink:href="#DejaVuSans-30" x="254.492188"/>
       <use xlink:href="#DejaVuSans-30" x="318.115234"/>
      </g>
     </g>
    </g>
    <g id="xtick_5">
     <g id="line2d_9">
      <path d="M 549.56035 193.12 
L 549.56035 38.16 
" clip-path="url(#pf8b685444c)" style="fill: none; stroke: #b0b0b0; stroke-width: 0.8; stroke-linecap: square"/>
     </g>
     <g id="line2d_10">
      <g>
       <use xlink:href="#mff257d9225" x="549.56035" y="193.12" style="stroke: #000000; stroke-width: 0.8"/>
      </g>
     </g>
     <g id="text_5">
      <!-- 550000 -->
      <g transform="translate(530.47285 207.718437)scale(0.1 -0.1)">
       <use xlink:href="#DejaVuSans-35"/>
       <use xlink:href="#DejaVuSans-35" x="63.623047"/>
       <use xlink:href="#DejaVuSans-30" x="127.246094"/>
       <use xlink:href="#DejaVuSans-30" x="190.869141"/>
       <use xlink:href="#DejaVuSans-30" x="254.492188"/>
       <use xlink:href="#DejaVuSans-30" x="318.115234"/>
      </g>
     </g>
    </g>
    <g id="xtick_6">
     <g id="line2d_11">
      <path d="M 645.419292 193.12 
L 645.419292 38.16 
" clip-path="url(#pf8b685444c)" style="fill: none; stroke: #b0b0b0; stroke-width: 0.8; stroke-linecap: square"/>
     </g>
     <g id="line2d_12">
      <g>
       <use xlink:href="#mff257d9225" x="645.419292" y="193.12" style="stroke: #000000; stroke-width: 0.8"/>
      </g>
     </g>
     <g id="text_6">
      <!-- 600000 -->
      <g transform="translate(626.331792 207.718437)scale(0.1 -0.1)">
       <defs>
        <path id="DejaVuSans-36" d="M 2113 2584 
Q 1688 2584 1439 2293 
Q 1191 2003 1191 1497 
Q 1191 994 1439 701 
Q 1688 409 2113 409 
Q 2538 409 2786 701 
Q 3034 994 3034 1497 
Q 3034 2003 2786 2293 
Q 2538 2584 2113 2584 
z
M 3366 4563 
L 3366 3988 
Q 3128 4100 2886 4159 
Q 2644 4219 2406 4219 
Q 1781 4219 1451 3797 
Q 1122 3375 1075 2522 
Q 1259 2794 1537 2939 
Q 1816 3084 2150 3084 
Q 2853 3084 3261 2657 
Q 3669 2231 3669 1497 
Q 3669 778 3244 343 
Q 2819 -91 2113 -91 
Q 1303 -91 875 529 
Q 447 1150 447 2328 
Q 447 3434 972 4092 
Q 1497 4750 2381 4750 
Q 2619 4750 2861 4703 
Q 3103 4656 3366 4563 
z
" transform="scale(0.015625)"/>
       </defs>
       <use xlink:href="#DejaVuSans-36"/>
       <use xlink:href="#DejaVuSans-30" x="63.623047"/>
       <use xlink:href="#DejaVuSans-30" x="127.246094"/>
       <use xlink:href="#DejaVuSans-30" x="190.869141"/>
       <use xlink:href="#DejaVuSans-30" x="254.492188"/>
       <use xlink:href="#DejaVuSans-30" x="318.115234"/>
      </g>
     </g>
    </g>
    <g id="text_7">
     <!-- time in ns -->
     <g transform="translate(367.469531 221.396562)scale(0.1 -0.1)">
      <defs>
       <path id="DejaVuSans-74" d="M 1172 4494 
L 1172 3500 
L 2356 3500 
L 2356 3053 
L 1172 3053 
L 1172 1153 
Q 1172 725 1289 603 
Q 1406 481 1766 481 
L 2356 481 
L 2356 0 
L 1766 0 
Q 1100 0 847 248 
Q 594 497 594 1153 
L 594 3053 
L 172 3053 
L 172 3500 
L 594 3500 
L 594 4494 
L 1172 4494 
z
" transform="scale(0.015625)"/>
       <path id="DejaVuSans-69" d="M 603 3500 
L 1178 3500 
L 1178 0 
L 603 0 
L 603 3500 
z
M 603 4863 
L 1178 4863 
L 1178 4134 
L 603 4134 
L 603 4863 
z
" transform="scale(0.015625)"/>
       <path id="DejaVuSans-6d" d="M 3328 2828 
Q 3544 3216 3844 3400 
Q 4144 3584 4550 3584 
Q 5097 3584 5394 3201 
Q 5691 2819 5691 2113 
L 5691 0 
L 5113 0 
L 5113 2094 
Q 5113 2597 4934 2840 
Q 4756 3084 4391 3084 
Q 3944 3084 3684 2787 
Q 3425 2491 3425 1978 
L 3425 0 
L 2847 0 
L 2847 2094 
Q 2847 2600 2669 2842 
Q 2491 3084 2119 3084 
Q 1678 3084 1418 2786 
Q 1159 2488 1159 1978 
L 1159 0 
L 581 0 
L 581 3500 
L 1159 3500 
L 1159 2956 
Q 1356 3278 1631 3431 
Q 1906 3584 2284 3584 
Q 2666 3584 2933 3390 
Q 3200 3197 3328 2828 
z
" transform="scale(0.015625)"/>
       <path id="DejaVuSans-65" d="M 3597 1894 
L 3597 1613 
L 953 1613 
Q 991 1019 1311 708 
Q 1631 397 2203 397 
Q 2534 397 2845 478 
Q 3156 559 3463 722 
L 3463 178 
Q 3153 47 2828 -22 
Q 2503 -91 2169 -91 
Q 1331 -91 842 396 
Q 353 884 353 1716 
Q 353 2575 817 3079 
Q 1281 3584 2069 3584 
Q 2775 3584 3186 3129 
Q 3597 2675 3597 1894 
z
M 3022 2063 
Q 3016 2534 2758 2815 
Q 2500 3097 2075 3097 
Q 1594 3097 1305 2825 
Q 1016 2553 972 2059 
L 3022 2063 
z
" transform="scale(0.015625)"/>
       <path id="DejaVuSans-20" transform="scale(0.015625)"/>
       <path id="DejaVuSans-6e" d="M 3513 2113 
L 3513 0 
L 2938 0 
L 2938 2094 
Q 2938 2591 2744 2837 
Q 2550 3084 2163 3084 
Q 1697 3084 1428 2787 
Q 1159 2491 1159 1978 
L 1159 0 
L 581 0 
L 581 3500 
L 1159 3500 
L 1159 2956 
Q 1366 3272 1645 3428 
Q 1925 3584 2291 3584 
Q 2894 3584 3203 3211 
Q 3513 2838 3513 2113 
z
" transform="scale(0.015625)"/>
       <path id="DejaVuSans-73" d="M 2834 3397 
L 2834 2853 
Q 2591 2978 2328 3040 
Q 2066 3103 1784 3103 
Q 1356 3103 1142 2972 
Q 928 2841 928 2578 
Q 928 2378 1081 2264 
Q 1234 2150 1697 2047 
L 1894 2003 
Q 2506 1872 2764 1633 
Q 3022 1394 3022 966 
Q 3022 478 2636 193 
Q 2250 -91 1575 -91 
Q 1294 -91 989 -36 
Q 684 19 347 128 
L 347 722 
Q 666 556 975 473 
Q 1284 391 1588 391 
Q 1994 391 2212 530 
Q 2431 669 2431 922 
Q 2431 1156 2273 1281 
Q 2116 1406 1581 1522 
L 1381 1569 
Q 847 1681 609 1914 
Q 372 2147 372 2553 
Q 372 3047 722 3315 
Q 1072 3584 1716 3584 
Q 2034 3584 2315 3537 
Q 2597 3491 2834 3397 
z
" transform="scale(0.015625)"/>
      </defs>
      <use xlink:href="#DejaVuSans-74"/>
      <use xlink:href="#DejaVuSans-69" x="39.208984"/>
      <use xlink:href="#DejaVuSans-6d" x="66.992188"/>
      <use xlink:href="#DejaVuSans-65" x="164.404297"/>
      <use xlink:href="#DejaVuSans-20" x="225.927734"/>
      <use xlink:href="#DejaVuSans-69" x="257.714844"/>
      <use xlink:href="#DejaVuSans-6e" x="285.498047"/>
      <use xlink:href="#DejaVuSans-20" x="348.876953"/>
      <use xlink:href="#DejaVuSans-6e" x="380.664062"/>
      <use xlink:href="#DejaVuSans-73" x="444.042969"/>
     </g>
    </g>
   </g>
   <g id="matplotlib.axis_2">
    <g id="ytick_1">
     <g id="line2d_13">
      <path d="M 75.35 186.163489 
L 709.2 186.163489 
" clip-path="url(#pf8b685444c)" style="fill: none; stroke: #b0b0b0; stroke-width: 0.8; stroke-linecap: square"/>
     </g>
     <g id="line2d_14">
      <defs>
       <path id="ma0396b21c3" d="M 0 0 
L -3.5 0 
" style="stroke: #000000; stroke-width: 0.8"/>
      </defs>
      <g>
       <use xlink:href="#ma0396b21c3" x="75.35" y="186.163489" style="stroke: #000000; stroke-width: 0.8"/>
      </g>
     </g>
     <g id="text_8">
      <!-- 0.0 -->
      <g transform="translate(52.446875 189.962708)scale(0.1 -0.1)">
       <defs>
        <path id="DejaVuSans-2e" d="M 684 794 
L 1344 794 
L 1344 0 
L 684 0 
L 684 794 
z
" transform="scale(0.015625)"/>
       </defs>
       <use xlink:href="#DejaVuSans-30"/>
       <use xlink:href="#DejaVuSans-2e" x="63.623047"/>
       <use xlink:href="#DejaVuSans-30" x="95.410156"/>
      </g>
     </g>
    </g>
    <g id="ytick_2">
     <g id="line2d_15">
      <path d="M 75.35 150.917341 
L 709.2 150.917341 
" clip-path="url(#pf8b685444c)" style="fill: none; stroke: #b0b0b0; stroke-width: 0.8; stroke-linecap: square"/>
     </g>
     <g id="line2d_16">
      <g>
       <use xlink:href="#ma0396b21c3" x="75.35" y="150.917341" style="stroke: #000000; stroke-width: 0.8"/>
      </g>
     </g>
     <g id="text_9">
      <!-- 0.5 -->
      <g transform="translate(52.446875 154.71656)scale(0.1 -0.1)">
       <use xlink:href="#DejaVuSans-30"/>
       <use xlink:href="#DejaVuSans-2e" x="63.623047"/>
       <use xlink:href="#DejaVuSans-35" x="95.410156"/>
      </g>
     </g>
    </g>
    <g id="ytick_3">
     <g id="line2d_17">
      <path d="M 75.35 115.671193 
L 709.2 115.671193 
" clip-path="url(#pf8b685444c)" style="fill: none; stroke: #b0b0b0; stroke-width: 0.8; stroke-linecap: square"/>
     </g>
     <g id="line2d_18">
      <g>
       <use xlink:href="#ma0396b21c3" x="75.35" y="115.671193" style="stroke: #000000; stroke-width: 0.8"/>
      </g>
     </g>
     <g id="text_10">
      <!-- 1.0 -->
      <g transform="translate(52.446875 119.470412)scale(0.1 -0.1)">
       <defs>
        <path id="DejaVuSans-31" d="M 794 531 
L 1825 531 
L 1825 4091 
L 703 3866 
L 703 4441 
L 1819 4666 
L 2450 4666 
L 2450 531 
L 3481 531 
L 3481 0 
L 794 0 
L 794 531 
z
" transform="scale(0.015625)"/>
       </defs>
       <use xlink:href="#DejaVuSans-31"/>
       <use xlink:href="#DejaVuSans-2e" x="63.623047"/>
       <use xlink:href="#DejaVuSans-30" x="95.410156"/>
      </g>
     </g>
    </g>
    <g id="ytick_4">
     <g id="line2d_19">
      <path d="M 75.35 80.425045 
L 709.2 80.425045 
" clip-path="url(#pf8b685444c)" style="fill: none; stroke: #b0b0b0; stroke-width: 0.8; stroke-linecap: square"/>
     </g>
     <g id="line2d_20">
      <g>
       <use xlink:href="#ma0396b21c3" x="75.35" y="80.425045" style="stroke: #000000; stroke-width: 0.8"/>
      </g>
     </g>
     <g id="text_11">
      <!-- 1.5 -->
      <g transform="translate(52.446875 84.224264)scale(0.1 -0.1)">
       <use xlink:href="#DejaVuSans-31"/>
       <use xlink:href="#DejaVuSans-2e" x="63.623047"/>
       <use xlink:href="#DejaVuSans-35" x="95.410156"/>
      </g>
     </g>
    </g>
    <g id="ytick_5">
     <g id="line2d_21">
      <path d="M 75.35 45.178897 
L 709.2 45.178897 
" clip-path="url(#pf8b685444c)" style="fill: none; stroke: #b0b0b0; stroke-width: 0.8; stroke-linecap: square"/>
     </g>
     <g id="line2d_22">
      <g>
       <use xlink:href="#ma0396b21c3" x="75.35" y="45.178897" style="stroke: #000000; stroke-width: 0.8"/>
      </g>
     </g>
     <g id="text_12">
      <!-- 2.0 -->
      <g transform="translate(52.446875 48.978116)scale(0.1 -0.1)">
       <defs>
        <path id="DejaVuSans-32" d="M 1228 531 
L 3431 531 
L 3431 0 
L 469 0 
L 469 531 
Q 828 903 1448 1529 
Q 2069 2156 2228 2338 
Q 2531 2678 2651 2914 
Q 2772 3150 2772 3378 
Q 2772 3750 2511 3984 
Q 2250 4219 1831 4219 
Q 1534 4219 1204 4116 
Q 875 4013 500 3803 
L 500 4441 
Q 881 4594 1212 4672 
Q 1544 4750 1819 4750 
Q 2544 4750 2975 4387 
Q 3406 4025 3406 3419 
Q 3406 3131 3298 2873 
Q 3191 2616 2906 2266 
Q 2828 2175 2409 1742 
Q 1991 1309 1228 531 
z
" transform="scale(0.015625)"/>
       </defs>
       <use xlink:href="#DejaVuSans-32"/>
       <use xlink:href="#DejaVuSans-2e" x="63.623047"/>
       <use xlink:href="#DejaVuSans-30" x="95.410156"/>
      </g>
     </g>
    </g>
    <g id="text_13">
     <!-- value -->
     <g transform="translate(46.367187 129.297812)rotate(-90)scale(0.1 -0.1)">
      <defs>
       <path id="DejaVuSans-76" d="M 191 3500 
L 800 3500 
L 1894 563 
L 2988 3500 
L 3597 3500 
L 2284 0 
L 1503 0 
L 191 3500 
z
" transform="scale(0.015625)"/>
       <path id="DejaVuSans-61" d="M 2194 1759 
Q 1497 1759 1228 1600 
Q 959 1441 959 1056 
Q 959 750 1161 570 
Q 1363 391 1709 391 
Q 2188 391 2477 730 
Q 2766 1069 2766 1631 
L 2766 1759 
L 2194 1759 
z
M 3341 1997 
L 3341 0 
L 2766 0 
L 2766 531 
Q 2569 213 2275 61 
Q 1981 -91 1556 -91 
Q 1019 -91 701 211 
Q 384 513 384 1019 
Q 384 1609 779 1909 
Q 1175 2209 1959 2209 
L 2766 2209 
L 2766 2266 
Q 2766 2663 2505 2880 
Q 2244 3097 1772 3097 
Q 1472 3097 1187 3025 
Q 903 2953 641 2809 
L 641 3341 
Q 956 3463 1253 3523 
Q 1550 3584 1831 3584 
Q 2591 3584 2966 3190 
Q 3341 2797 3341 1997 
z
" transform="scale(0.015625)"/>
       <path id="DejaVuSans-6c" d="M 603 4863 
L 1178 4863 
L 1178 0 
L 603 0 
L 603 4863 
z
" transform="scale(0.015625)"/>
       <path id="DejaVuSans-75" d="M 544 1381 
L 544 3500 
L 1119 3500 
L 1119 1403 
Q 1119 906 1312 657 
Q 1506 409 1894 409 
Q 2359 409 2629 706 
Q 2900 1003 2900 1516 
L 2900 3500 
L 3475 3500 
L 3475 0 
L 2900 0 
L 2900 538 
Q 2691 219 2414 64 
Q 2138 -91 1772 -91 
Q 1169 -91 856 284 
Q 544 659 544 1381 
z
M 1991 3584 
L 1991 3584 
z
" transform="scale(0.015625)"/>
      </defs>
      <use xlink:href="#DejaVuSans-76"/>
      <use xlink:href="#DejaVuSans-61" x="59.179688"/>
      <use xlink:href="#DejaVuSans-6c" x="120.458984"/>
      <use xlink:href="#DejaVuSans-75" x="148.242188"/>
      <use xlink:href="#DejaVuSans-65" x="211.621094"/>
     </g>
    </g>
   </g>
   <g id="patch_3">
    <path d="M 75.35 193.12 
L 75.35 38.16 
" style="fill: none; stroke: #000000; stroke-width: 0.8; stroke-linejoin: miter; stroke-linecap: square"/>
   </g>
   <g id="patch_4">
    <path d="M 709.2 193.12 
L 709.2 38.16 
" style="fill: none; stroke: #000000; stroke-width: 0.8; stroke-linejoin: miter; stroke-linecap: square"/>
   </g>
   <g id="patch_5">
    <path d="M 75.35 193.12 
L 709.2 193.12 
" style="fill: none; stroke: #000000; stroke-width: 0.8; stroke-linejoin: miter; stroke-linecap: square"/>
   </g>
   <g id="patch_6">
    <path d="M 75.35 38.16 
L 709.2 38.16 
" style="fill: none; stroke: #000000; stroke-width: 0.8; stroke-linejoin: miter; stroke-linecap: square"/>
   </g>
   <g id="legend_1">
    <g id="patch_7">
     <path d="M 589.009375 60.838125 
L 702.2 60.838125 
Q 704.2 60.838125 704.2 58.838125 
L 704.2 45.16 
Q 704.2 43.16 702.2 43.16 
L 589.009375 43.16 
Q 587.009375 43.16 587.009375 45.16 
L 587.009375 58.838125 
Q 587.009375 60.838125 589.009375 60.838125 
z
" style="fill: #ffffff; opacity: 0.8; stroke: #cccccc; stroke-linejoin: miter"/>
    </g>
    <g id="PathCollection_2">
     <g>
      <use xlink:href="#mde51c47e1f" x="601.009375" y="52.133438" style="fill: #1f77b4; stroke: #1f77b4"/>
     </g>
    </g>
    <g id="text_14">
     <!-- SPI data as float -->
     <g transform="translate(619.009375 54.758438)scale(0.1 -0.1)">
      <defs>
       <path id="DejaVuSans-53" d="M 3425 4513 
L 3425 3897 
Q 3066 4069 2747 4153 
Q 2428 4238 2131 4238 
Q 1616 4238 1336 4038 
Q 1056 3838 1056 3469 
Q 1056 3159 1242 3001 
Q 1428 2844 1947 2747 
L 2328 2669 
Q 3034 2534 3370 2195 
Q 3706 1856 3706 1288 
Q 3706 609 3251 259 
Q 2797 -91 1919 -91 
Q 1588 -91 1214 -16 
Q 841 59 441 206 
L 441 856 
Q 825 641 1194 531 
Q 1563 422 1919 422 
Q 2459 422 2753 634 
Q 3047 847 3047 1241 
Q 3047 1584 2836 1778 
Q 2625 1972 2144 2069 
L 1759 2144 
Q 1053 2284 737 2584 
Q 422 2884 422 3419 
Q 422 4038 858 4394 
Q 1294 4750 2059 4750 
Q 2388 4750 2728 4690 
Q 3069 4631 3425 4513 
z
" transform="scale(0.015625)"/>
       <path id="DejaVuSans-50" d="M 1259 4147 
L 1259 2394 
L 2053 2394 
Q 2494 2394 2734 2622 
Q 2975 2850 2975 3272 
Q 2975 3691 2734 3919 
Q 2494 4147 2053 4147 
L 1259 4147 
z
M 628 4666 
L 2053 4666 
Q 2838 4666 3239 4311 
Q 3641 3956 3641 3272 
Q 3641 2581 3239 2228 
Q 2838 1875 2053 1875 
L 1259 1875 
L 1259 0 
L 628 0 
L 628 4666 
z
" transform="scale(0.015625)"/>
       <path id="DejaVuSans-49" d="M 628 4666 
L 1259 4666 
L 1259 0 
L 628 0 
L 628 4666 
z
" transform="scale(0.015625)"/>
       <path id="DejaVuSans-64" d="M 2906 2969 
L 2906 4863 
L 3481 4863 
L 3481 0 
L 2906 0 
L 2906 525 
Q 2725 213 2448 61 
Q 2172 -91 1784 -91 
Q 1150 -91 751 415 
Q 353 922 353 1747 
Q 353 2572 751 3078 
Q 1150 3584 1784 3584 
Q 2172 3584 2448 3432 
Q 2725 3281 2906 2969 
z
M 947 1747 
Q 947 1113 1208 752 
Q 1469 391 1925 391 
Q 2381 391 2643 752 
Q 2906 1113 2906 1747 
Q 2906 2381 2643 2742 
Q 2381 3103 1925 3103 
Q 1469 3103 1208 2742 
Q 947 2381 947 1747 
z
" transform="scale(0.015625)"/>
       <path id="DejaVuSans-66" d="M 2375 4863 
L 2375 4384 
L 1825 4384 
Q 1516 4384 1395 4259 
Q 1275 4134 1275 3809 
L 1275 3500 
L 2222 3500 
L 2222 3053 
L 1275 3053 
L 1275 0 
L 697 0 
L 697 3053 
L 147 3053 
L 147 3500 
L 697 3500 
L 697 3744 
Q 697 4328 969 4595 
Q 1241 4863 1831 4863 
L 2375 4863 
z
" transform="scale(0.015625)"/>
       <path id="DejaVuSans-6f" d="M 1959 3097 
Q 1497 3097 1228 2736 
Q 959 2375 959 1747 
Q 959 1119 1226 758 
Q 1494 397 1959 397 
Q 2419 397 2687 759 
Q 2956 1122 2956 1747 
Q 2956 2369 2687 2733 
Q 2419 3097 1959 3097 
z
M 1959 3584 
Q 2709 3584 3137 3096 
Q 3566 2609 3566 1747 
Q 3566 888 3137 398 
Q 2709 -91 1959 -91 
Q 1206 -91 779 398 
Q 353 888 353 1747 
Q 353 2609 779 3096 
Q 1206 3584 1959 3584 
z
" transform="scale(0.015625)"/>
      </defs>
      <use xlink:href="#DejaVuSans-53"/>
      <use xlink:href="#DejaVuSans-50" x="63.476562"/>
      <use xlink:href="#DejaVuSans-49" x="123.779297"/>
      <use xlink:href="#DejaVuSans-20" x="153.271484"/>
      <use xlink:href="#DejaVuSans-64" x="185.058594"/>
      <use xlink:href="#DejaVuSans-61" x="248.535156"/>
      <use xlink:href="#DejaVuSans-74" x="309.814453"/>
      <use xlink:href="#DejaVuSans-61" x="349.023438"/>
      <use xlink:href="#DejaVuSans-20" x="410.302734"/>
      <use xlink:href="#DejaVuSans-61" x="442.089844"/>
      <use xlink:href="#DejaVuSans-73" x="503.369141"/>
      <use xlink:href="#DejaVuSans-20" x="555.46875"/>
      <use xlink:href="#DejaVuSans-66" x="587.255859"/>
      <use xlink:href="#DejaVuSans-6c" x="622.460938"/>
      <use xlink:href="#DejaVuSans-6f" x="650.244141"/>
      <use xlink:href="#DejaVuSans-61" x="711.425781"/>
      <use xlink:href="#DejaVuSans-74" x="772.705078"/>
     </g>
    </g>
   </g>
  </g>
  <g id="axes_2">
   <g id="patch_8">
    <path d="M 75.35 390.04 
L 709.2 390.04 
L 709.2 235.08 
L 75.35 235.08 
z
" style="fill: #ffffff"/>
   </g>
   <g id="matplotlib.axis_3">
    <g id="xtick_7">
     <g id="line2d_23">
      <path d="M 166.124582 390.04 
L 166.124582 235.08 
" clip-path="url(#p5bda8d9004)" style="fill: none; stroke: #b0b0b0; stroke-width: 0.8; stroke-linecap: square"/>
     </g>
     <g id="line2d_24">
      <g>
       <use xlink:href="#mff257d9225" x="166.124582" y="390.04" style="stroke: #000000; stroke-width: 0.8"/>
      </g>
     </g>
     <g id="text_15">
      <!-- 350000 -->
      <g transform="translate(147.037082 404.638437)scale(0.1 -0.1)">
       <use xlink:href="#DejaVuSans-33"/>
       <use xlink:href="#DejaVuSans-35" x="63.623047"/>
       <use xlink:href="#DejaVuSans-30" x="127.246094"/>
       <use xlink:href="#DejaVuSans-30" x="190.869141"/>
       <use xlink:href="#DejaVuSans-30" x="254.492188"/>
       <use xlink:href="#DejaVuSans-30" x="318.115234"/>
      </g>
     </g>
    </g>
    <g id="xtick_8">
     <g id="line2d_25">
      <path d="M 261.983524 390.04 
L 261.983524 235.08 
" clip-path="url(#p5bda8d9004)" style="fill: none; stroke: #b0b0b0; stroke-width: 0.8; stroke-linecap: square"/>
     </g>
     <g id="line2d_26">
      <g>
       <use xlink:href="#mff257d9225" x="261.983524" y="390.04" style="stroke: #000000; stroke-width: 0.8"/>
      </g>
     </g>
     <g id="text_16">
      <!-- 400000 -->
      <g transform="translate(242.896024 404.638437)scale(0.1 -0.1)">
       <use xlink:href="#DejaVuSans-34"/>
       <use xlink:href="#DejaVuSans-30" x="63.623047"/>
       <use xlink:href="#DejaVuSans-30" x="127.246094"/>
       <use xlink:href="#DejaVuSans-30" x="190.869141"/>
       <use xlink:href="#DejaVuSans-30" x="254.492188"/>
       <use xlink:href="#DejaVuSans-30" x="318.115234"/>
      </g>
     </g>
    </g>
    <g id="xtick_9">
     <g id="line2d_27">
      <path d="M 357.842466 390.04 
L 357.842466 235.08 
" clip-path="url(#p5bda8d9004)" style="fill: none; stroke: #b0b0b0; stroke-width: 0.8; stroke-linecap: square"/>
     </g>
     <g id="line2d_28">
      <g>
       <use xlink:href="#mff257d9225" x="357.842466" y="390.04" style="stroke: #000000; stroke-width: 0.8"/>
      </g>
     </g>
     <g id="text_17">
      <!-- 450000 -->
      <g transform="translate(338.754966 404.638437)scale(0.1 -0.1)">
       <use xlink:href="#DejaVuSans-34"/>
       <use xlink:href="#DejaVuSans-35" x="63.623047"/>
       <use xlink:href="#DejaVuSans-30" x="127.246094"/>
       <use xlink:href="#DejaVuSans-30" x="190.869141"/>
       <use xlink:href="#DejaVuSans-30" x="254.492188"/>
       <use xlink:href="#DejaVuSans-30" x="318.115234"/>
      </g>
     </g>
    </g>
    <g id="xtick_10">
     <g id="line2d_29">
      <path d="M 453.701408 390.04 
L 453.701408 235.08 
" clip-path="url(#p5bda8d9004)" style="fill: none; stroke: #b0b0b0; stroke-width: 0.8; stroke-linecap: square"/>
     </g>
     <g id="line2d_30">
      <g>
       <use xlink:href="#mff257d9225" x="453.701408" y="390.04" style="stroke: #000000; stroke-width: 0.8"/>
      </g>
     </g>
     <g id="text_18">
      <!-- 500000 -->
      <g transform="translate(434.613908 404.638437)scale(0.1 -0.1)">
       <use xlink:href="#DejaVuSans-35"/>
       <use xlink:href="#DejaVuSans-30" x="63.623047"/>
       <use xlink:href="#DejaVuSans-30" x="127.246094"/>
       <use xlink:href="#DejaVuSans-30" x="190.869141"/>
       <use xlink:href="#DejaVuSans-30" x="254.492188"/>
       <use xlink:href="#DejaVuSans-30" x="318.115234"/>
      </g>
     </g>
    </g>
    <g id="xtick_11">
     <g id="line2d_31">
      <path d="M 549.56035 390.04 
L 549.56035 235.08 
" clip-path="url(#p5bda8d9004)" style="fill: none; stroke: #b0b0b0; stroke-width: 0.8; stroke-linecap: square"/>
     </g>
     <g id="line2d_32">
      <g>
       <use xlink:href="#mff257d9225" x="549.56035" y="390.04" style="stroke: #000000; stroke-width: 0.8"/>
      </g>
     </g>
     <g id="text_19">
      <!-- 550000 -->
      <g transform="translate(530.47285 404.638437)scale(0.1 -0.1)">
       <use xlink:href="#DejaVuSans-35"/>
       <use xlink:href="#DejaVuSans-35" x="63.623047"/>
       <use xlink:href="#DejaVuSans-30" x="127.246094"/>
       <use xlink:href="#DejaVuSans-30" x="190.869141"/>
       <use xlink:href="#DejaVuSans-30" x="254.492188"/>
       <use xlink:href="#DejaVuSans-30" x="318.115234"/>
      </g>
     </g>
    </g>
    <g id="xtick_12">
     <g id="line2d_33">
      <path d="M 645.419292 390.04 
L 645.419292 235.08 
" clip-path="url(#p5bda8d9004)" style="fill: none; stroke: #b0b0b0; stroke-width: 0.8; stroke-linecap: square"/>
     </g>
     <g id="line2d_34">
      <g>
       <use xlink:href="#mff257d9225" x="645.419292" y="390.04" style="stroke: #000000; stroke-width: 0.8"/>
      </g>
     </g>
     <g id="text_20">
      <!-- 600000 -->
      <g transform="translate(626.331792 404.638437)scale(0.1 -0.1)">
       <use xlink:href="#DejaVuSans-36"/>
       <use xlink:href="#DejaVuSans-30" x="63.623047"/>
       <use xlink:href="#DejaVuSans-30" x="127.246094"/>
       <use xlink:href="#DejaVuSans-30" x="190.869141"/>
       <use xlink:href="#DejaVuSans-30" x="254.492188"/>
       <use xlink:href="#DejaVuSans-30" x="318.115234"/>
      </g>
     </g>
    </g>
    <g id="text_21">
     <!-- time in ns -->
     <g transform="translate(367.469531 418.316562)scale(0.1 -0.1)">
      <use xlink:href="#DejaVuSans-74"/>
      <use xlink:href="#DejaVuSans-69" x="39.208984"/>
      <use xlink:href="#DejaVuSans-6d" x="66.992188"/>
      <use xlink:href="#DejaVuSans-65" x="164.404297"/>
      <use xlink:href="#DejaVuSans-20" x="225.927734"/>
      <use xlink:href="#DejaVuSans-69" x="257.714844"/>
      <use xlink:href="#DejaVuSans-6e" x="285.498047"/>
      <use xlink:href="#DejaVuSans-20" x="348.876953"/>
      <use xlink:href="#DejaVuSans-6e" x="380.664062"/>
      <use xlink:href="#DejaVuSans-73" x="444.042969"/>
     </g>
    </g>
   </g>
   <g id="matplotlib.axis_4">
    <g id="ytick_6">
     <g id="line2d_35">
      <path d="M 75.35 363.586362 
L 709.2 363.586362 
" clip-path="url(#p5bda8d9004)" style="fill: none; stroke: #b0b0b0; stroke-width: 0.8; stroke-linecap: square"/>
     </g>
     <g id="line2d_36">
      <g>
       <use xlink:href="#ma0396b21c3" x="75.35" y="363.586362" style="stroke: #000000; stroke-width: 0.8"/>
      </g>
     </g>
     <g id="text_22">
      <!-- −0.0001 -->
      <g transform="translate(24.979687 367.38558)scale(0.1 -0.1)">
       <defs>
        <path id="DejaVuSans-2212" d="M 678 2272 
L 4684 2272 
L 4684 1741 
L 678 1741 
L 678 2272 
z
" transform="scale(0.015625)"/>
       </defs>
       <use xlink:href="#DejaVuSans-2212"/>
       <use xlink:href="#DejaVuSans-30" x="83.789062"/>
       <use xlink:href="#DejaVuSans-2e" x="147.412109"/>
       <use xlink:href="#DejaVuSans-30" x="179.199219"/>
       <use xlink:href="#DejaVuSans-30" x="242.822266"/>
       <use xlink:href="#DejaVuSans-30" x="306.445312"/>
       <use xlink:href="#DejaVuSans-31" x="370.068359"/>
      </g>
     </g>
    </g>
    <g id="ytick_7">
     <g id="line2d_37">
      <path d="M 75.35 326.67672 
L 709.2 326.67672 
" clip-path="url(#p5bda8d9004)" style="fill: none; stroke: #b0b0b0; stroke-width: 0.8; stroke-linecap: square"/>
     </g>
     <g id="line2d_38">
      <g>
       <use xlink:href="#ma0396b21c3" x="75.35" y="326.67672" style="stroke: #000000; stroke-width: 0.8"/>
      </g>
     </g>
     <g id="text_23">
      <!-- 0.0000 -->
      <g transform="translate(33.359375 330.475939)scale(0.1 -0.1)">
       <use xlink:href="#DejaVuSans-30"/>
       <use xlink:href="#DejaVuSans-2e" x="63.623047"/>
       <use xlink:href="#DejaVuSans-30" x="95.410156"/>
       <use xlink:href="#DejaVuSans-30" x="159.033203"/>
       <use xlink:href="#DejaVuSans-30" x="222.65625"/>
       <use xlink:href="#DejaVuSans-30" x="286.279297"/>
      </g>
     </g>
    </g>
    <g id="ytick_8">
     <g id="line2d_39">
      <path d="M 75.35 289.767079 
L 709.2 289.767079 
" clip-path="url(#p5bda8d9004)" style="fill: none; stroke: #b0b0b0; stroke-width: 0.8; stroke-linecap: square"/>
     </g>
     <g id="line2d_40">
      <g>
       <use xlink:href="#ma0396b21c3" x="75.35" y="289.767079" style="stroke: #000000; stroke-width: 0.8"/>
      </g>
     </g>
     <g id="text_24">
      <!-- 0.0001 -->
      <g transform="translate(33.359375 293.566297)scale(0.1 -0.1)">
       <use xlink:href="#DejaVuSans-30"/>
       <use xlink:href="#DejaVuSans-2e" x="63.623047"/>
       <use xlink:href="#DejaVuSans-30" x="95.410156"/>
       <use xlink:href="#DejaVuSans-30" x="159.033203"/>
       <use xlink:href="#DejaVuSans-30" x="222.65625"/>
       <use xlink:href="#DejaVuSans-31" x="286.279297"/>
      </g>
     </g>
    </g>
    <g id="ytick_9">
     <g id="line2d_41">
      <path d="M 75.35 252.857437 
L 709.2 252.857437 
" clip-path="url(#p5bda8d9004)" style="fill: none; stroke: #b0b0b0; stroke-width: 0.8; stroke-linecap: square"/>
     </g>
     <g id="line2d_42">
      <g>
       <use xlink:href="#ma0396b21c3" x="75.35" y="252.857437" style="stroke: #000000; stroke-width: 0.8"/>
      </g>
     </g>
     <g id="text_25">
      <!-- 0.0002 -->
      <g transform="translate(33.359375 256.656656)scale(0.1 -0.1)">
       <use xlink:href="#DejaVuSans-30"/>
       <use xlink:href="#DejaVuSans-2e" x="63.623047"/>
       <use xlink:href="#DejaVuSans-30" x="95.410156"/>
       <use xlink:href="#DejaVuSans-30" x="159.033203"/>
       <use xlink:href="#DejaVuSans-30" x="222.65625"/>
       <use xlink:href="#DejaVuSans-32" x="286.279297"/>
      </g>
     </g>
    </g>
    <g id="text_26">
     <!-- value -->
     <g transform="translate(18.9 326.217812)rotate(-90)scale(0.1 -0.1)">
      <use xlink:href="#DejaVuSans-76"/>
      <use xlink:href="#DejaVuSans-61" x="59.179688"/>
      <use xlink:href="#DejaVuSans-6c" x="120.458984"/>
      <use xlink:href="#DejaVuSans-75" x="148.242188"/>
      <use xlink:href="#DejaVuSans-65" x="211.621094"/>
     </g>
    </g>
   </g>
   <g id="line2d_43">
    <path d="M 104.161364 382.996364 
L 115.242657 339.664085 
L 126.323951 337.653814 
L 137.405245 366.557304 
L 148.486538 379.935642 
L 159.567832 367.033308 
L 170.649126 317.03291 
L 181.73042 306.621096 
L 192.811713 327.76094 
L 203.893007 345.531428 
L 214.974301 332.488095 
L 226.055594 335.771184 
L 237.136888 329.077329 
L 248.218182 345.046961 
L 259.299476 347.355925 
L 270.380769 332.467776 
L 281.462063 373.81087 
L 292.543357 371.850984 
L 303.62465 360.517972 
L 314.705944 339.387097 
L 325.787238 290.62241 
L 336.868531 268.126914 
L 347.949825 283.032393 
L 359.031119 329.191611 
L 370.112413 284.095373 
L 381.193706 265.441724 
L 392.275 339.63528 
L 403.356294 297.625123 
L 414.437587 371.188339 
L 425.518881 366.693209 
L 436.600175 347.867305 
L 447.681469 310.808546 
L 458.762762 349.486109 
L 469.844056 360.065928 
L 480.92535 354.26104 
L 492.006643 311.748918 
L 503.087937 315.177136 
L 514.169231 331.432511 
L 525.250524 315.080405 
L 536.331818 318.637829 
L 547.413112 305.589877 
L 558.494406 296.946463 
L 569.575699 293.773015 
L 580.656993 279.800461 
L 591.738287 242.123636 
L 602.81958 328.202195 
L 613.900874 305.558998 
L 624.982168 317.801161 
L 636.063462 351.787264 
L 647.144755 308.162911 
L 658.226049 297.793901 
L 669.307343 307.900019 
L 680.388636 330.344867 
" clip-path="url(#p5bda8d9004)" style="fill: none; stroke: #1f77b4; stroke-width: 1.5; stroke-linecap: square"/>
   </g>
   <g id="patch_9">
    <path d="M 75.35 390.04 
L 75.35 235.08 
" style="fill: none; stroke: #000000; stroke-width: 0.8; stroke-linejoin: miter; stroke-linecap: square"/>
   </g>
   <g id="patch_10">
    <path d="M 709.2 390.04 
L 709.2 235.08 
" style="fill: none; stroke: #000000; stroke-width: 0.8; stroke-linejoin: miter; stroke-linecap: square"/>
   </g>
   <g id="patch_11">
    <path d="M 75.35 390.04 
L 709.2 390.04 
" style="fill: none; stroke: #000000; stroke-width: 0.8; stroke-linejoin: miter; stroke-linecap: square"/>
   </g>
   <g id="patch_12">
    <path d="M 75.35 235.08 
L 709.2 235.08 
" style="fill: none; stroke: #000000; stroke-width: 0.8; stroke-linejoin: miter; stroke-linecap: square"/>
   </g>
   <g id="legend_2">
    <g id="patch_13">
     <path d="M 82.35 258.03625 
L 227.520313 258.03625 
Q 229.520313 258.03625 229.520313 256.03625 
L 229.520313 242.08 
Q 229.520313 240.08 227.520313 240.08 
L 82.35 240.08 
Q 80.35 240.08 80.35 242.08 
L 80.35 256.03625 
Q 80.35 258.03625 82.35 258.03625 
z
" style="fill: #ffffff; opacity: 0.8; stroke: #cccccc; stroke-linejoin: miter"/>
    </g>
    <g id="line2d_44">
     <path d="M 84.35 248.178437 
L 94.35 248.178437 
L 104.35 248.178437 
" style="fill: none; stroke: #1f77b4; stroke-width: 1.5; stroke-linecap: square"/>
    </g>
    <g id="text_27">
     <!-- error = y_data - y_calc -->
     <g transform="translate(112.35 251.678437)scale(0.1 -0.1)">
      <defs>
       <path id="DejaVuSans-72" d="M 2631 2963 
Q 2534 3019 2420 3045 
Q 2306 3072 2169 3072 
Q 1681 3072 1420 2755 
Q 1159 2438 1159 1844 
L 1159 0 
L 581 0 
L 581 3500 
L 1159 3500 
L 1159 2956 
Q 1341 3275 1631 3429 
Q 1922 3584 2338 3584 
Q 2397 3584 2469 3576 
Q 2541 3569 2628 3553 
L 2631 2963 
z
" transform="scale(0.015625)"/>
       <path id="DejaVuSans-3d" d="M 678 2906 
L 4684 2906 
L 4684 2381 
L 678 2381 
L 678 2906 
z
M 678 1631 
L 4684 1631 
L 4684 1100 
L 678 1100 
L 678 1631 
z
" transform="scale(0.015625)"/>
       <path id="DejaVuSans-79" d="M 2059 -325 
Q 1816 -950 1584 -1140 
Q 1353 -1331 966 -1331 
L 506 -1331 
L 506 -850 
L 844 -850 
Q 1081 -850 1212 -737 
Q 1344 -625 1503 -206 
L 1606 56 
L 191 3500 
L 800 3500 
L 1894 763 
L 2988 3500 
L 3597 3500 
L 2059 -325 
z
" transform="scale(0.015625)"/>
       <path id="DejaVuSans-5f" d="M 3263 -1063 
L 3263 -1509 
L -63 -1509 
L -63 -1063 
L 3263 -1063 
z
" transform="scale(0.015625)"/>
       <path id="DejaVuSans-2d" d="M 313 2009 
L 1997 2009 
L 1997 1497 
L 313 1497 
L 313 2009 
z
" transform="scale(0.015625)"/>
       <path id="DejaVuSans-63" d="M 3122 3366 
L 3122 2828 
Q 2878 2963 2633 3030 
Q 2388 3097 2138 3097 
Q 1578 3097 1268 2742 
Q 959 2388 959 1747 
Q 959 1106 1268 751 
Q 1578 397 2138 397 
Q 2388 397 2633 464 
Q 2878 531 3122 666 
L 3122 134 
Q 2881 22 2623 -34 
Q 2366 -91 2075 -91 
Q 1284 -91 818 406 
Q 353 903 353 1747 
Q 353 2603 823 3093 
Q 1294 3584 2113 3584 
Q 2378 3584 2631 3529 
Q 2884 3475 3122 3366 
z
" transform="scale(0.015625)"/>
      </defs>
      <use xlink:href="#DejaVuSans-65"/>
      <use xlink:href="#DejaVuSans-72" x="61.523438"/>
      <use xlink:href="#DejaVuSans-72" x="100.886719"/>
      <use xlink:href="#DejaVuSans-6f" x="139.75"/>
      <use xlink:href="#DejaVuSans-72" x="200.931641"/>
      <use xlink:href="#DejaVuSans-20" x="242.044922"/>
      <use xlink:href="#DejaVuSans-3d" x="273.832031"/>
      <use xlink:href="#DejaVuSans-20" x="357.621094"/>
      <use xlink:href="#DejaVuSans-79" x="389.408203"/>
      <use xlink:href="#DejaVuSans-5f" x="448.587891"/>
      <use xlink:href="#DejaVuSans-64" x="498.587891"/>
      <use xlink:href="#DejaVuSans-61" x="562.064453"/>
      <use xlink:href="#DejaVuSans-74" x="623.34375"/>
      <use xlink:href="#DejaVuSans-61" x="662.552734"/>
      <use xlink:href="#DejaVuSans-20" x="723.832031"/>
      <use xlink:href="#DejaVuSans-2d" x="755.619141"/>
      <use xlink:href="#DejaVuSans-20" x="791.703125"/>
      <use xlink:href="#DejaVuSans-79" x="823.490234"/>
      <use xlink:href="#DejaVuSans-5f" x="882.669922"/>
      <use xlink:href="#DejaVuSans-63" x="932.669922"/>
      <use xlink:href="#DejaVuSans-61" x="987.650391"/>
      <use xlink:href="#DejaVuSans-6c" x="1048.929688"/>
      <use xlink:href="#DejaVuSans-63" x="1076.712891"/>
     </g>
    </g>
   </g>
  </g>
  <g id="text_28">
   <!-- Sine Stimuli and SPI Driver -->
   <g transform="translate(252.86 20.7975)scale(0.16 -0.16)">
    <defs>
     <path id="DejaVuSans-44" d="M 1259 4147 
L 1259 519 
L 2022 519 
Q 2988 519 3436 956 
Q 3884 1394 3884 2338 
Q 3884 3275 3436 3711 
Q 2988 4147 2022 4147 
L 1259 4147 
z
M 628 4666 
L 1925 4666 
Q 3281 4666 3915 4102 
Q 4550 3538 4550 2338 
Q 4550 1131 3912 565 
Q 3275 0 1925 0 
L 628 0 
L 628 4666 
z
" transform="scale(0.015625)"/>
    </defs>
    <use xlink:href="#DejaVuSans-53"/>
    <use xlink:href="#DejaVuSans-69" x="63.476562"/>
    <use xlink:href="#DejaVuSans-6e" x="91.259766"/>
    <use xlink:href="#DejaVuSans-65" x="154.638672"/>
    <use xlink:href="#DejaVuSans-20" x="216.162109"/>
    <use xlink:href="#DejaVuSans-53" x="247.949219"/>
    <use xlink:href="#DejaVuSans-74" x="311.425781"/>
    <use xlink:href="#DejaVuSans-69" x="350.634766"/>
    <use xlink:href="#DejaVuSans-6d" x="378.417969"/>
    <use xlink:href="#DejaVuSans-75" x="475.830078"/>
    <use xlink:href="#DejaVuSans-6c" x="539.208984"/>
    <use xlink:href="#DejaVuSans-69" x="566.992188"/>
    <use xlink:href="#DejaVuSans-20" x="594.775391"/>
    <use xlink:href="#DejaVuSans-61" x="626.5625"/>
    <use xlink:href="#DejaVuSans-6e" x="687.841797"/>
    <use xlink:href="#DejaVuSans-64" x="751.220703"/>
    <use xlink:href="#DejaVuSans-20" x="814.697266"/>
    <use xlink:href="#DejaVuSans-53" x="846.484375"/>
    <use xlink:href="#DejaVuSans-50" x="909.960938"/>
    <use xlink:href="#DejaVuSans-49" x="970.263672"/>
    <use xlink:href="#DejaVuSans-20" x="999.755859"/>
    <use xlink:href="#DejaVuSans-44" x="1031.542969"/>
    <use xlink:href="#DejaVuSans-72" x="1108.544922"/>
    <use xlink:href="#DejaVuSans-69" x="1149.658203"/>
    <use xlink:href="#DejaVuSans-76" x="1177.441406"/>
    <use xlink:href="#DejaVuSans-65" x="1236.621094"/>
    <use xlink:href="#DejaVuSans-72" x="1298.144531"/>
   </g>
  </g>
 </g>
 <defs>
  <clipPath id="pf8b685444c">
   <rect x="75.35" y="38.16" width="633.85" height="154.96"/>
  </clipPath>
  <clipPath id="p5bda8d9004">
   <rect x="75.35" y="235.08" width="633.85" height="154.96"/>
  </clipPath>
 </defs>
</svg>
